<?xml version="1.0" standalone="no"?><!DOCTYPE svg PUBLIC "-//W3C//DTD SVG 1.1//EN" "http://www.w3.org/Graphics/SVG/1.1/DTD/svg11.dtd"><svg t="1531729148488" class="icon" style="" viewBox="0 0 1024 1024" version="1.1" xmlns="http://www.w3.org/2000/svg" p-id="2273" xmlns:xlink="http://www.w3.org/1999/xlink" width="64" height="64"><defs><style type="text/css"></style></defs><path d="M271.416115 542.86492c-7.893526 0-15.787052-2.960072-21.830533-9.003553-12.086962-12.086962-12.086962-31.574104 0-43.661066L730.720661 9.065221c12.086962-12.086962 31.574104-12.086962 43.661066 0 12.086962 12.086962 12.086962 31.574104 0 43.661066L293.246648 533.861367c-6.043481 5.920145-13.937007 9.003553-21.830533 9.003553z" fill="#020202" p-id="2274"></path><path d="M752.551194 1024c-7.893526 0-15.787052-2.960072-21.830533-9.003553L249.585582 533.861367c-12.086962-12.086962-12.086962-31.574104 0-43.661066 12.086962-12.086962 31.574104-12.086962 43.661066 0l481.135079 481.13508c12.086962 12.086962 12.086962 31.574104 0 43.661066-6.043481 5.920145-13.937007 9.003553-21.830533 9.003553z" fill="#020202" p-id="2275"></path></svg>