<?xml version="1.0" standalone="no"?><!DOCTYPE svg PUBLIC "-//W3C//DTD SVG 1.1//EN" "http://www.w3.org/Graphics/SVG/1.1/DTD/svg11.dtd"><svg t="1531388581289" class="icon" style="" viewBox="0 0 1024 1024" version="1.1" xmlns="http://www.w3.org/2000/svg" p-id="5959" xmlns:xlink="http://www.w3.org/1999/xlink" width="64" height="64"><defs><style type="text/css"></style></defs><path d="M736 480.064m-32 0a32 32 0 1 0 64 0 32 32 0 1 0-64 0Z" fill="" p-id="5960"></path><path d="M544 288.064m-32 0a32 32 0 1 0 64 0 32 32 0 1 0-64 0Z" fill="" p-id="5961"></path><path d="M288 288.064m-32 0a32 32 0 1 0 64 0 32 32 0 1 0-64 0Z" fill="" p-id="5962"></path><path d="M736 736.064m-32 0a32 32 0 1 0 64 0 32 32 0 1 0-64 0Z" fill="" p-id="5963"></path><path d="M128.32 447.936v-96c0-17.6 14.4-32 32-32H287.36l-31.296-64H128.32c-35.2 0-64 28.8-64 64v159.552l64-31.552z m-64 284.8v163.2c0 35.2 28.8 64 64 64h576c35.2 0 64-28.8 64-64v-192.064l-63.68 32.064v32.128l-0.32 95.872c0 17.6-14.4 32-32 32h-512a32.064 32.064 0 0 1-32-32v-96.192m415.616-447.808h128.96c17.6 0 31.36 14.4 31.36 32v126.208l64.64 33.664V319.936c0-35.2-28.8-64-64-64H576.064l-32.128 64z" fill="" p-id="5964"></path><path d="M736 704.064h64c52.8 0 96-43.2 96-96s-43.2-96-96-96h-64v-64h64c88 0 160 72 160 160s-72 160-160 160h-64v-64z" fill="" p-id="5965"></path><path d="M96 480.064m-32 0a32 32 0 1 0 64 0 32 32 0 1 0-64 0Z" fill="" p-id="5966"></path><path d="M96 736.064m-32 0a32 32 0 1 0 64 0 32 32 0 1 0-64 0Z" fill="" p-id="5967"></path><path d="M96 704.064h64c52.8 0 96-43.2 96-96s-43.2-96-96-96h-64v-64h64c88 0 160 72 160 160s-72 160-160 160h-64v-64zM512 288.064v-64c0-52.8-43.2-96-96-96S320 171.264 320 224.064v64H256v-64c0-88 72-160 160-160S576 136.064 576 224.064v64H512z" fill="" p-id="5968"></path></svg>