<?xml version="1.0" standalone="no"?><!DOCTYPE svg PUBLIC "-//W3C//DTD SVG 1.1//EN" "http://www.w3.org/Graphics/SVG/1.1/DTD/svg11.dtd"><svg t="1530083832228" class="icon" style="" viewBox="0 0 1024 1024" version="1.1" xmlns="http://www.w3.org/2000/svg" p-id="3450" xmlns:xlink="http://www.w3.org/1999/xlink" width="64" height="64"><defs><style type="text/css"></style></defs><path d="M756.352 196.266667l-80.341333 0c-8.149333-48.341333-50.048-85.333333-100.650667-85.333333L565.76 110.933333C569.514667 103.125333 571.733333 94.506667 571.733333 85.333333c0-32.896-26.837333-59.733333-59.733333-59.733333S452.266667 52.437333 452.266667 85.333333c0 9.173333 2.261333 17.792 6.016 25.6l-9.6 0c-50.645333 0-92.501333 36.992-100.650667 85.333333L267.605333 196.266667c-67.157333 0-121.770667 54.656-121.770667 121.813333l0 558.506667c0 67.157333 54.613333 121.813333 121.770667 121.813333l488.704 0c67.157333 0 121.813333-54.656 121.813333-121.813333L878.122667 318.08C878.165333 250.922667 823.509333 196.266667 756.352 196.266667zM486.4 85.333333c0-14.122667 11.477333-25.6 25.6-25.6s25.6 11.477333 25.6 25.6S526.122667 110.933333 512 110.933333 486.4 99.456 486.4 85.333333zM448.682667 145.066667l126.677333 0c37.632 0 68.266667 30.634667 68.266667 68.266667s-30.634667 68.266667-68.266667 68.266667l-126.677333 0c-37.632 0-68.266667-30.634667-68.266667-68.266667S411.050667 145.066667 448.682667 145.066667zM843.989333 876.586667c0 48.341333-39.338667 87.68-87.68 87.68L267.605333 964.266667c-48.341333 0-87.637333-39.338667-87.637333-87.68L179.968 318.08C180.010667 269.738667 219.306667 230.4 267.605333 230.4l80.384 0c8.149333 48.341333 50.048 85.333333 100.650667 85.333333l126.677333 0c50.645333 0 92.501333-36.992 100.650667-85.333333l80.341333 0c48.341333 0 87.68 39.338667 87.68 87.68L843.989333 876.586667z" p-id="3451"></path><path d="M675.84 422.101333l-200.618667 280.533333-132.138667-79.274667c-8.021333-4.821333-18.56-2.261333-23.424 5.845333s-2.261333 18.602667 5.845333 23.424l145.621333 87.381333c2.730667 1.664 5.802667 2.474667 8.789333 2.474667 2.730667 0 5.461333-0.768 7.936-2.048 0.896-0.512 1.493333-1.365333 2.304-2.005333 1.28-0.938667 2.688-1.749333 3.669333-3.114667l209.792-293.333333c5.504-7.68 3.712-18.346667-3.968-23.808C692.010667 412.629333 681.344 414.378667 675.84 422.101333z" p-id="3452"></path></svg>