<?xml version="1.0" standalone="no"?><!DOCTYPE svg PUBLIC "-//W3C//DTD SVG 1.1//EN" "http://www.w3.org/Graphics/SVG/1.1/DTD/svg11.dtd"><svg t="1531359658609" class="icon" style="" viewBox="0 0 1024 1024" version="1.1" xmlns="http://www.w3.org/2000/svg" p-id="1518" xmlns:xlink="http://www.w3.org/1999/xlink" width="64" height="64"><defs><style type="text/css"></style></defs><path d="M552.277601 880.577215H163.804246c-11.108132 0-20.113203-9.005071-20.113203-20.113203v-696.928024c0-11.108132 9.005071-20.113203 20.113203-20.113203h696.927c11.108132 0 20.113203 9.005071 20.113203 20.113203v389.147071c0 12.82314 10.395508 23.218648 23.218648 23.218648s23.218648-10.395508 23.218647-23.218648V163.535988c0-36.755435-29.796087-66.550498-66.550498-66.550498H163.804246c-36.755435 0-66.550498 29.796087-66.550498 66.550498v696.927c0 36.755435 29.796087 66.550498 66.550498 66.550498h388.472331c12.82314 0 23.218648-10.395508 23.218648-23.218647 0.001024-12.82314-10.394484-23.217624-23.217624-23.217624z" p-id="1519"></path><path d="M921.394404 888.075128L709.294511 677.867375c37.764986-44.812389 60.534148-102.676244 60.534148-165.867375 0-142.24634-115.313037-257.560401-257.560401-257.560401-141.899243 0-257.562449 115.663206-257.561425 257.562449 0.001024 142.24634 115.314061 257.559377 257.561425 257.559377 62.335162 0 119.496632-22.14664 164.049978-58.99832l212.240165 210.349049c9.067528 9.067528 23.768474 9.067528 32.836003 0 9.067528-9.067528 9.067528-23.769498 0-32.837026zM512.268258 723.123106c-56.392532 0-109.410338-21.960292-149.286576-61.83653s-61.83653-92.894044-61.83653-149.286576 21.960292-109.410338 61.83653-149.286576 92.894044-61.83653 149.286576-61.83653 109.410338 21.960292 149.286576 61.83653 61.83653 92.894044 61.83653 149.286576-21.960292 109.410338-61.83653 149.286576-92.894044 61.83653-149.286576 61.83653z" p-id="1520"></path></svg>