<?xml version="1.0" standalone="no"?><!DOCTYPE svg PUBLIC "-//W3C//DTD SVG 1.1//EN" "http://www.w3.org/Graphics/SVG/1.1/DTD/svg11.dtd"><svg t="1532934928257" class="icon" style="" viewBox="0 0 1024 1024" version="1.1" xmlns="http://www.w3.org/2000/svg" p-id="3464" xmlns:xlink="http://www.w3.org/1999/xlink" width="64" height="64"><defs><style type="text/css"></style></defs><path d="M399.337 238.861c10.735 18.595 4.316 42.397-14.33700001 53.168-18.653 10.77-42.479 4.427-53.21299999-14.168l-90.123-156.099c-10.736-18.595-4.317-42.39799999 14.336-53.169 18.653-10.77 42.479-4.426 53.214 14.169l90.123 156.099z" fill="#bbbbbb" p-id="3465"></path><path d="M782.336 902.236c10.73500001 18.594 4.317 42.39799999-14.336 53.169-18.653 10.77-42.479 4.426-53.214-14.16799999l-90.124-156.09900001c-10.73500001-18.594-4.316-42.398 14.337-53.168 18.653-10.77 42.478-4.426 53.213 14.168l90.124 156.098z" fill="#999999" p-id="3466"></path><path d="M785.139 399.337c-18.594 10.73500001-42.398 4.316-53.168-14.33700001-10.77-18.653-4.426-42.479 14.168-53.21299999l156.098-90.12400001c18.594-10.73500001 42.399-4.316 53.168 14.33700001 10.77 18.653 4.426 42.479-14.168 53.213l-156.098 90.124z" fill="#a9a9a9" p-id="3467"></path><path d="M121.764 782.336c-18.594 10.736-42.39799999 4.317-53.169-14.336-10.77-18.654-4.426-42.479 14.169-53.214l156.099-90.123c18.594-10.73500001 42.397-4.316 53.168 14.337 10.77 18.654 4.426 42.479-14.168 53.213l-156.099 90.123z" fill="#cdcdcd" p-id="3468"></path><path d="M692.213 277.861c-10.734 18.59500001-34.56 24.938-53.21299999 14.168-18.653-10.771-25.072-34.573-14.33600001-53.168l90.123-156.099c10.734-18.59500001 34.56-24.938 53.213-14.169 18.653 10.771 25.072 34.574 14.336 53.169l-90.123 156.099z" fill="#afafaf" p-id="3469"></path><path d="M309.214 941.236c-10.73500001 18.594-34.561 24.93799999-53.214 14.169-18.653-10.771-25.072-34.575-14.33700001-53.168l90.12300001-156.099c10.73500001-18.594 34.561-24.93799999 53.214-14.168 18.653 10.771 25.072 34.574 14.337 53.168l-90.123 156.098z" fill="#d1d1d1" p-id="3470"></path><path d="M746.139 692.213c-18.594-10.73500001-24.938-34.56-14.168-53.21299999s34.574-25.072 53.168-14.33600001L941.237 714.787C959.831 725.522 966.175 749.347 955.405 768c-10.771 18.653-34.574 25.072-53.168 14.336l-156.098-90.123z" fill="#9d9d9d" p-id="3471"></path><path d="M82.764 309.214c-18.59500001-10.734-24.93799999-34.561-14.169-53.214 10.771-18.653 34.574-25.072 53.169-14.337l156.099 90.123C296.456 342.52100001 302.80000001 366.347 292.03 385c-10.771 18.653-34.574 25.072-53.168 14.337l-156.098-90.123z" fill="#c2c2c2" p-id="3472"></path><path d="M804.877 551c-21.471 0-38.877-17.461-38.877-39s17.406-39 38.877-39L985.123 473C1006.594 473 1024 490.461 1024 512s-17.406 39-38.877 39l-180.246 0z" fill="#a3a3a3" p-id="3473"></path><path d="M38.877 551c-21.471 0-38.877-17.461-38.877-39s17.406-39 38.877-39L219.123 473c21.471 0 38.877 17.461 38.877 39s-17.406 39-38.877 39l-180.246 0z" fill="#c8c8c8" p-id="3474"></path><path d="M473 804.877c0-21.471 17.461-38.877 39-38.877s39 17.406 39 38.877L551 985.123c0 21.471-17.461 38.877-39 38.877s-39-17.406-39-38.877l0-180.246z" fill="#949494" p-id="3475"></path><path d="M473 38.877c0-21.471 17.461-38.877 39-38.877s39 17.406 39 38.877L551 219.123c0 21.471-17.461 38.877-39 38.877s-39-17.406-39-38.877l0-180.246z" fill="#b6b6b6" p-id="3476"></path></svg>