<?xml version="1.0" standalone="no"?><!DOCTYPE svg PUBLIC "-//W3C//DTD SVG 1.1//EN" "http://www.w3.org/Graphics/SVG/1.1/DTD/svg11.dtd"><svg t="1531388525162" class="icon" style="" viewBox="0 0 1024 1024" version="1.1" xmlns="http://www.w3.org/2000/svg" p-id="5666" xmlns:xlink="http://www.w3.org/1999/xlink" width="64" height="64"><defs><style type="text/css"></style></defs><path d="M480 320v160H128a128 128 0 0 1-128-128V0h352a128 128 0 0 1 128 128v192z m-80 0v-16V144a64 64 0 0 0-64-64H80v240h2.256A63.52 63.52 0 0 0 80 336a64 64 0 0 0 64 64h256v-80z" fill="#FFD800" p-id="5667"></path><path d="M976 1024H672a128 128 0 0 1-128-128V544h352a128 128 0 0 1 128 128v352h-48z m-32-160V704h-2.272c1.344-5.152 2.272-10.448 2.272-16a64 64 0 0 0-64-64H624v256a64 64 0 0 0 64 64h256v-80z" fill="#FF872E" p-id="5668"></path><path d="M888 208h-16a8 8 0 0 0-8 8V288c0 23.984-11.36 32-32 32h-32a16 16 0 1 0 0 32h41.136C871.44 352 896 325.248 896 292.256V216a8 8 0 0 0-8-8zM736 320a16 16 0 1 0 0 32 16 16 0 0 0 0-32z" fill="#F78836" p-id="5669"></path><path d="M896 480H544V128a128 128 0 0 1 128-128h352v352a128 128 0 0 1-128 128z m48-160V80H688a64 64 0 0 0-64 64v256h256a64 64 0 0 0 64-64c0-5.568-0.928-10.864-2.272-16H944zM352 1024H0V672a128 128 0 0 1 128-128h352v352a128 128 0 0 1-128 128z m48-304v-96H144a64 64 0 0 0-64 64c0 5.552 0.928 10.848 2.256 16H80v240h256a64 64 0 0 0 64-64V720z" fill="#19D286" p-id="5670"></path></svg>