<?xml version="1.0" standalone="no"?><!DOCTYPE svg PUBLIC "-//W3C//DTD SVG 1.1//EN" "http://www.w3.org/Graphics/SVG/1.1/DTD/svg11.dtd"><svg t="1531387550700" class="icon" style="" viewBox="0 0 1024 1024" version="1.1" xmlns="http://www.w3.org/2000/svg" p-id="3199" xmlns:xlink="http://www.w3.org/1999/xlink" width="64" height="64"><defs><style type="text/css"></style></defs><path d="M287.62057724 305.36374151H85.14194521A19.46909971 19.46909971 0 0 1 65.6728455 285.8946418V81.46909971A19.46909971 19.46909971 0 0 1 85.14194521 62h202.47863203a19.46909971 19.46909971 0 0 1 19.46909971 19.46909971v202.47863203a19.46909971 19.46909971 0 0 1-19.46909971 19.46909971zM104.61104404 266.42554297h163.54043438V100.93819854H104.61104404v163.54043437z" fill="" p-id="3200"></path><path d="M612.75453594 305.36374151H410.27590302a19.46909971 19.46909971 0 0 1-19.46909882-19.46909971V81.46909971A19.46909971 19.46909971 0 0 1 410.27590302 62h202.47863292a19.46909971 19.46909971 0 0 1 19.46909883 19.46909971v202.47863203a19.46909971 19.46909971 0 0 1-19.46909883 19.46909971zM429.74500273 266.42554297h163.5404335V100.93819854H429.74500273v163.54043437z" fill="" p-id="3201"></path><path d="M937.88849375 305.36374151H735.40986172a19.46909971 19.46909971 0 0 1-19.46909971-19.46909971V81.46909971A19.46909971 19.46909971 0 0 1 735.40986172 62h202.47863203a19.46909971 19.46909971 0 0 1 19.46909971 19.46909971v202.47863203a19.46909971 19.46909971 0 0 1-19.46909971 19.46909971zM754.87896055 266.42554297h163.54043437V100.93819854H754.87896055v163.54043437z" fill="" p-id="3202"></path><path d="M287.62057724 632.44460938H85.14194521A19.46909971 19.46909971 0 0 1 65.6728455 612.97550967V412.4437877a19.46909971 19.46909971 0 0 1 19.46909971-19.46909971h202.47863203a19.46909971 19.46909971 0 0 1 19.46909971 19.46909971v202.47863203a19.46909971 19.46909971 0 0 1-19.46909971 19.4690997zM104.61104404 593.50641084h163.54043438V431.91288653H104.61104404v163.54043436z" fill="" p-id="3203"></path><path d="M612.75453594 632.44460938H410.27590302a19.46909971 19.46909971 0 0 1-19.46909882-19.46909971V412.4437877a19.46909971 19.46909971 0 0 1 19.46909882-19.46909971h202.47863292a19.46909971 19.46909971 0 0 1 19.46909883 19.46909971v202.47863203a19.46909971 19.46909971 0 0 1-19.46909883 19.4690997zM429.74500273 593.50641084h163.5404335V431.91288653H429.74500273v163.54043436z" fill="" p-id="3204"></path><path d="M937.88849375 632.44460938H735.40986172a19.46909971 19.46909971 0 0 1-19.46909971-19.46909971V412.4437877a19.46909971 19.46909971 0 0 1 19.46909971-19.46909971h202.47863203a19.46909971 19.46909971 0 0 1 19.46909971 19.46909971v202.47863203a19.46909971 19.46909971 0 0 1-19.46909971 19.4690997zM754.87896055 593.50641084h163.54043437V431.91288653H754.87896055v163.54043436z" fill="" p-id="3205"></path><path d="M287.62057724 961.47238731H85.14194521A19.46909971 19.46909971 0 0 1 65.6728455 942.00328847V739.52465557a19.46909971 19.46909971 0 0 1 19.46909971-19.46909971h202.47863203a19.46909971 19.46909971 0 0 1 19.46909971 19.46909971v202.47863291a19.46909971 19.46909971 0 0 1-19.46909971 19.46909883zM104.61104404 922.53418877h163.54043438V758.9937544H104.61104404v163.54043437z" fill="" p-id="3206"></path><path d="M612.75453594 961.47238731H410.27590302a19.46909971 19.46909971 0 0 1-19.46909882-19.46909883V739.52465557a19.46909971 19.46909971 0 0 1 19.46909882-19.46909971h202.47863292a19.46909971 19.46909971 0 0 1 19.46909883 19.46909971v202.47863291a19.46909971 19.46909971 0 0 1-19.46909883 19.46909883zM429.74500273 922.53418877h163.5404335V758.9937544H429.74500273v163.54043437z" fill="" p-id="3207"></path><path d="M937.88849375 961.47238731H735.40986172a19.46909971 19.46909971 0 0 1-19.46909971-19.46909883V739.52465557a19.46909971 19.46909971 0 0 1 19.46909971-19.46909971h202.47863203a19.46909971 19.46909971 0 0 1 19.46909971 19.46909971v202.47863291a19.46909971 19.46909971 0 0 1-19.46909971 19.46909883zM754.87896055 922.53418877h163.54043437V758.9937544H754.87896055v163.54043437z" fill="" p-id="3208"></path></svg>