<?xml version="1.0" standalone="no"?><!DOCTYPE svg PUBLIC "-//W3C//DTD SVG 1.1//EN" "http://www.w3.org/Graphics/SVG/1.1/DTD/svg11.dtd"><svg t="1531389017787" class="icon" style="" viewBox="0 0 1029 1024" version="1.1" xmlns="http://www.w3.org/2000/svg" p-id="9368" xmlns:xlink="http://www.w3.org/1999/xlink" width="64.3125" height="64"><defs><style type="text/css"></style></defs><path d="M893.155556 1024H136.533333A138.24 138.24 0 0 1 0 887.466667V136.533333A138.24 138.24 0 0 1 136.533333 0h756.622223a138.24 138.24 0 0 1 136.533333 136.533333v755.484445A137.671111 137.671111 0 0 1 893.155556 1024zM136.533333 51.2A77.937778 77.937778 0 0 0 56.888889 130.844444v756.622223A77.937778 77.937778 0 0 0 136.533333 967.111111h756.622223a77.937778 77.937778 0 0 0 79.644444-79.644444V136.533333A77.937778 77.937778 0 0 0 893.155556 56.888889L136.533333 51.2z" fill="" p-id="9369"></path><path d="M668.444444 944.355556a254.293333 254.293333 0 0 1-258.844444-241.777778l5.688889-142.791111a245.191111 245.191111 0 0 1 253.155555-241.208889 250.88 250.88 0 0 1 253.155556 241.777778v142.222222a245.191111 245.191111 0 0 1-253.155556 241.777778z m0-568.888889A188.871111 188.871111 0 0 0 472.177778 560.355556l-5.688889 142.222222a199.111111 199.111111 0 0 0 201.955555 183.751111 188.871111 188.871111 0 0 0 196.266667-184.888889v-142.222222a193.422222 193.422222 0 0 0-196.266667-183.751111zM443.733333 560.355556z" fill="" p-id="9370"></path><path d="M563.2 157.582222A139.377778 139.377778 0 0 0 426.097778 295.822222a79.644444 79.644444 0 1 1-159.288889 0V26.168889h-51.2V295.822222a138.808889 138.808889 0 0 0 136.533333 137.671111 134.257778 134.257778 0 0 0 130.844445-137.671111 79.644444 79.644444 0 1 1 159.288889 0v275.911111h51.2V295.822222A127.431111 127.431111 0 0 0 563.2 157.582222z" fill="" p-id="9371"></path><path d="M438.044444 523.377778h455.111112v56.888889h-455.111112z" fill="" p-id="9372"></path></svg>