<?xml version="1.0" standalone="no"?><!DOCTYPE svg PUBLIC "-//W3C//DTD SVG 1.1//EN" "http://www.w3.org/Graphics/SVG/1.1/DTD/svg11.dtd"><svg t="1531463590945" class="icon" style="" viewBox="0 0 1485 1024" version="1.1" xmlns="http://www.w3.org/2000/svg" p-id="5838" xmlns:xlink="http://www.w3.org/1999/xlink" width="92.8125" height="64"><defs><style type="text/css"></style></defs><path d="M1447.498585 26.658725A76.669229 76.669229 0 0 0 1388.691363 0.003114H217.584912C170.594094 0.003114 128.458078 38.475129 120.855275 87.572748l-119.629646 806.08031a85.829233 85.829233 0 0 0 18.320007 68.974827A76.669229 76.669229 0 0 0 78.994059 989.283495h1171.10645c46.990818 0 89.493234-38.472015 96.729637-87.569634l119.538046-806.08031A85.829233 85.829233 0 0 0 1447.498585 26.658725z m-35.632414 60.914023l-119.538046 806.08031c-3.206001 21.617608-22.991609 40.670416-42.410816 40.670416H78.994059a22.258809 22.258809 0 0 1-17.404007-7.602803 31.144012 31.144012 0 0 1-6.412003-25.00681l119.538046-806.08031C178.380097 73.924343 198.257304 54.963136 217.584912 54.963136h1171.106451a22.167209 22.167209 0 0 1 17.404006 7.602802 31.144012 31.144012 0 0 1 5.954002 25.00681z" fill="#BFBFBF" p-id="5839"></path><path d="M560.627044 217.553198a42.868816 42.868816 0 0 0 19.877208 2.381601 28.579211 28.579211 0 0 0 17.220806-7.969203c4.671602-4.671602 9.160004-9.709604 13.190405-14.198006A141.705255 141.705255 0 0 0 622.457068 183.203185a145.827256 145.827256 0 0 0 9.160003-15.846806 91.600035 91.600035 0 0 0 8.427203-33.892013l-5.129602-2.015201a140.789254 140.789254 0 0 1-24.365609 18.320007 112.484843 112.484843 0 0 1-12.457605 6.595203 99.752438 99.752438 0 0 1-12.274404 5.129602 44.609217 44.609217 0 0 1-13.098805 1.9236 17.312407 17.312407 0 0 0-10.992005 4.580002 66.868026 66.868026 0 0 0-9.618003 11.541604c-1.648801 2.473201-3.480801 4.946402-5.312802 7.969204s-3.755601 6.320402-5.679203 10.900404l0.641201 5.496002a47.632018 47.632018 0 0 0 18.869607 13.648405zM1016.978419 178.806383a44.334417 44.334417 0 0 0-7.236402-12.549205c-4.854802-7.144803-14.656006-4.488402-22.075609-7.144802a98.103638 98.103638 0 0 1-10.442404-4.122002 39.937615 39.937615 0 0 1-5.221202-2.290001 37.189614 37.189614 0 0 1-4.946402-2.656401 36.640014 36.640014 0 0 1-16.213206-16.488006l-5.312802-1.374001a41.311616 41.311616 0 0 0-1.0992 33.342413 60.456023 60.456023 0 0 0 3.206001 7.877603 64.669625 64.669625 0 0 0 3.847201 7.511203 133.003251 133.003251 0 0 0 9.709604 13.282005c3.480801 3.938802 6.595203 9.160004 10.076004 13.098805a21.709208 21.709208 0 0 0 13.282005 7.694403 38.746815 38.746815 0 0 0 16.762806-1.0076 52.30362 52.30362 0 0 0 9.160004-3.480802 71.264827 71.264827 0 0 0 9.984404-6.412002l2.015201-5.129602c-0.458-4.763202-1.648801-7.694403-2.290001-11.633205a64.761225 64.761225 0 0 0-3.206002-8.518803zM981.987206 340.022445a236.144891 236.144891 0 0 0-47.357218-50.380019 276.632106 276.632106 0 0 0-28.029611-19.602408c-4.854802-2.931201-9.801204-5.770802-14.839206-8.518803l-7.602803-3.847201-3.847201-1.832001-1.923601-0.916001a20.701608 20.701608 0 0 0-2.748001-1.0992 154.254459 154.254459 0 0 0-18.320007 0.6412 155.72006 155.72006 0 0 0-17.495607 2.656401A158.193261 158.193261 0 0 0 806.298338 268.666018a174.040067 174.040067 0 0 0-31.144012 19.510807 189.062473 189.062473 0 0 0-26.38081 26.10601 256.480099 256.480099 0 0 0-53.31122 135.201652A297.700115 297.700115 0 0 0 714.698303 593.388143a201.520078 201.520078 0 0 0 41.311616 64.761225 117.614445 117.614445 0 0 0 34.350013 24.274009 91.600035 91.600035 0 0 0 43.326817 8.427203 105.24844 105.24844 0 0 0 40.578816-11.175204 155.72006 155.72006 0 0 0 31.968412-21.709208 293.761313 293.761313 0 0 0 46.624418-53.952421c6.961603-9.160004 12.915605-19.419207 19.327607-29.128811s11.816405-20.243608 16.579607-31.144012a254.464898 254.464898 0 0 0 22.258808-67.417626 190.802873 190.802873 0 0 0-0.916-71.539628 187.688472 187.688472 0 0 0-28.121211-64.761225z m2.198401 130.713251a225.061287 225.061287 0 0 1-23.907609 58.349222c-4.854802 9.160004-11.266804 18.320007-16.854407 27.480011s-12.457605 17.495607-19.602407 25.648009a256.480099 256.480099 0 0 1-43.601617 44.792418 82.440032 82.440032 0 0 1-48.456419 20.152007 54.227221 54.227221 0 0 1-40.578815-21.984008 151.414858 151.414858 0 0 1-26.01441-50.65482 359.438538 359.438538 0 0 1-15.388806-120.728846 258.586899 258.586899 0 0 1 30.136411-117.156445 164.880063 164.880063 0 0 1 39.204815-46.441218 158.468061 158.468061 0 0 1 26.380811-17.495607 151.964458 151.964458 0 0 1 14.656005-7.053202c5.221202-2.473201 9.160004-3.755601 14.656006-6.137203l1.0076 0.732801 1.832001 1.0076 3.572401 2.106801 7.053203 4.396801c4.580002 3.022801 9.160004 6.228802 13.556805 9.160004a266.281302 266.281302 0 0 1 25.19001 21.342808 223.046086 223.046086 0 0 1 40.670416 50.56322 168.086065 168.086065 0 0 1 20.610007 59.631623 165.979264 165.979264 0 0 1-4.122001 62.288024zM942.049591 785.473417a40.945216 40.945216 0 0 1-4.396802-4.580002 19.419207 19.419207 0 0 1-3.664001-5.221202 82.989632 82.989632 0 0 1-5.129602-11.816405 97.828838 97.828838 0 0 1-3.938802-13.282005 123.018847 123.018847 0 0 1-3.022801-30.136411l-4.854802-2.473201a86.195633 86.195633 0 0 0-19.144407 29.312011 132.178851 132.178851 0 0 0-5.312802 17.587207c0 1.832001-0.458 3.755601-0.641201 5.587602l-4.488401 1.0992-19.510808 5.129602c-12.732405 3.572401-25.46481 6.503603-37.739214 9.160004a208.39008 208.39008 0 0 1-35.082814 4.671602 70.165627 70.165627 0 0 1-14.564405-1.007601l-2.931202-0.6412-4.122001-1.0992a81.615631 81.615631 0 0 1-7.694403-2.290001c-10.350804-3.389201-20.976408-8.152403-34.350013-13.190405a136.850453 136.850453 0 0 0-47.082418-9.892804 121.644847 121.644847 0 0 0-48.914419 10.167604A169.368465 169.368465 0 0 0 595.618257 795.641021a212.420482 212.420482 0 0 1-28.670811 21.251208 54.318821 54.318821 0 0 1-29.312011 4.213601 195.108075 195.108075 0 0 1-36.182014-6.961602c-12.457605-3.297601-24.274009-7.694403-38.197215-11.724805a184.299271 184.299271 0 0 0-83.997232-5.496002 106.714041 106.714041 0 0 0-69.616027 44.059617l4.580002 3.022801a88.027634 88.027634 0 0 1 30.960812-21.800808 106.897241 106.897241 0 0 1 36.640014-9.160004 163.048063 163.048063 0 0 1 73.280028 14.106406c11.266804 4.763202 23.907609 10.900404 36.640014 15.938406a227.717688 227.717688 0 0 0 41.311616 12.640805 104.69884 104.69884 0 0 0 23.816009 1.9236 81.157631 81.157631 0 0 0 25.55641-5.129602 112.942843 112.942843 0 0 0 21.434409-10.717204c6.137202-4.030402 11.450004-7.786003 16.579606-10.992004a87.752834 87.752834 0 0 1 60.272823-15.572006 145.827256 145.827256 0 0 1 30.044812 10.167604 231.656489 231.656489 0 0 0 40.578815 13.740005 89.310034 89.310034 0 0 0 11.816405 2.106801l6.137202 0.7328h6.961603a109.004042 109.004042 0 0 0 25.28161-2.839601 172.391266 172.391266 0 0 0 41.952816-16.396406A259.5029 259.5029 0 0 0 879.578367 799.763022c3.938802-3.206001 7.694403-6.412002 11.450004-9.709604v13.740006a39.296415 39.296415 0 0 0 2.290001 9.709603 31.144012 31.144012 0 0 0 5.496002 8.244004 44.334417 44.334417 0 0 0 40.304016 13.831605l4.030401-3.755602c1.465601-4.854802 1.557201-8.152403 2.656401-12.091204s0.7328-6.503603 1.099201-9.160004a73.280028 73.280028 0 0 0 0-14.656005 16.121606 16.121606 0 0 0-4.854802-10.442404z" fill="#BFBFBF" p-id="5840"></path><path d="M839.989789 550.755139a53.03642 79.05083 12.37 1 0 33.869156-154.431264 53.03642 79.05083 12.37 1 0-33.869156 154.431264Z" fill="#BFBFBF" p-id="5841"></path><path d="M427.257393 677.018975a116.332045 116.332045 0 0 0 34.350013 22.716809 93.157236 93.157236 0 0 0 42.136016 7.419602 107.996442 107.996442 0 0 0 39.479615-10.534004 159.292461 159.292461 0 0 0 31.602012-20.518407 280.845708 280.845708 0 0 0 47.357219-51.66242c7.053203-9.160004 12.915605-18.778007 19.419207-28.121211s11.999605-19.510808 16.762807-30.044812a239.442492 239.442492 0 0 0 22.808408-65.677225 168.910465 168.910465 0 0 0-29.678411-132.911651 233.85489 233.85489 0 0 0-47.448818-47.998419 281.578508 281.578508 0 0 0-27.480011-18.320007c-4.854802-2.748001-9.618004-5.496002-14.564406-7.969203l-7.511202-3.664001-3.755602-1.740401-1.923601-0.8244a21.342808 21.342808 0 0 0-2.748001-1.0076 158.284861 158.284861 0 0 0-17.770407 0 151.414858 151.414858 0 0 0-17.037606 2.29 156.72766 156.72766 0 0 0-33.525613 10.350804 166.437264 166.437264 0 0 0-57.616422 42.777217 240.908093 240.908093 0 0 0-54.960021 131.62925A279.471708 279.471708 0 0 0 384.938176 614.456151a191.627274 191.627274 0 0 0 42.319217 62.562824z m-7.236403-199.230077a238.160092 238.160092 0 0 1 30.777612-112.942843A160.758062 160.758062 0 0 1 490.095017 320.603238a157.552061 157.552061 0 0 1 26.10601-16.671207 146.560056 146.560056 0 0 1 14.472805-6.778402c5.129602-2.381601 9.160004-3.664001 14.381206-5.954003l1.0076 0.732801 1.740401 1.0076 3.480801 2.015201 6.870003 4.213602c4.580002 2.839601 9.160004 5.954002 13.373605 9.160003a271.410904 271.410904 0 0 1 25.00681 20.335208 220.756085 220.756085 0 0 1 40.762015 48.456419 158.376461 158.376461 0 0 1 20.976408 57.616422A151.689658 151.689658 0 0 1 654.24228 494.643305a210.038881 210.038881 0 0 1-24.182409 56.334021c-4.854802 9.160004-11.358404 17.404007-17.037607 26.10601s-12.457605 16.762806-19.602407 24.54881A243.472894 243.472894 0 0 1 549.81824 644.409362a84.088832 84.088832 0 0 1-47.906819 18.869608 54.960021 54.960021 0 0 1-40.304015-20.518408 141.338854 141.338854 0 0 1-26.19761-48.181619 329.760127 329.760127 0 0 1-15.480406-116.698445z" fill="#BFBFBF" p-id="5842"></path><path d="M510.247025 571.678934c28.579211 6.045602 59.448423-22.350409 68.791626-63.295624s-6.228802-79.14243-34.899613-85.188033-59.448423 22.350409-68.791627 63.295625 6.228802 79.14243 34.899614 85.188032zM1478.917397 878.355852a135.018452 135.018452 0 0 0-36.640014-55.876021l-4.305202 3.480801a145.918856 145.918856 0 0 1 14.198006 57.616422 84.821633 84.821633 0 0 1-3.389201 26.564011 74.562429 74.562429 0 0 1-10.350804 22.625208 70.532027 70.532027 0 0 1-18.320007 17.220807 129.43085 129.43085 0 0 0-19.327608 16.946006 295.226914 295.226914 0 0 0-39.754415 49.55562l2.106801 5.038001a94.164836 94.164836 0 0 0 18.320007 2.473201 130.07205 130.07205 0 0 0 18.320007-1.2824 127.507249 127.507249 0 0 0 17.220806-4.305202 139.506854 139.506854 0 0 0 16.488007-7.236403 78.31803 78.31803 0 0 0 27.48001-24.915209 171.383666 171.383666 0 0 0 17.129207-34.441613 115.049644 115.049644 0 0 0 6.961603-37.464415 117.614445 117.614445 0 0 0-6.137203-35.998814z" fill="#BFBFBF" p-id="5843"></path></svg>