<?xml version="1.0" standalone="no"?><!DOCTYPE svg PUBLIC "-//W3C//DTD SVG 1.1//EN" "http://www.w3.org/Graphics/SVG/1.1/DTD/svg11.dtd"><svg t="1540800952959" class="icon" style="" viewBox="0 0 1024 1024" version="1.1" xmlns="http://www.w3.org/2000/svg" p-id="1354" xmlns:xlink="http://www.w3.org/1999/xlink" width="64" height="64"><defs><style type="text/css"></style></defs><path d="M704 192h64c32 0 64 32 64 64v64h64V256c0-70.4-57.6-128-128-128h-64v64zM192 320V256c0-32 32-64 64-64h64V128H256c-70.4 0-128 57.6-128 128v64h64zM320 832H256c-32 0-64-32-64-64v-64H128v64c0 70.4 57.6 128 128 128h64v-64zM832 704v64c0 32-32 64-64 64h-64v64h64c70.4 0 128-57.6 128-128v-64h-64z" fill="#1296db" p-id="1355"></path><path d="M320 160m-32 0a32 32 0 1 0 64 0 32 32 0 1 0-64 0Z" fill="#1296db" p-id="1356"></path><path d="M160 320m-32 0a32 32 0 1 0 64 0 32 32 0 1 0-64 0Z" fill="#1296db" p-id="1357"></path><path d="M160 512m-32 0a32 32 0 1 0 64 0 32 32 0 1 0-64 0Z" fill="#1296db" p-id="1358"></path><path d="M864 512m-32 0a32 32 0 1 0 64 0 32 32 0 1 0-64 0Z" fill="#1296db" p-id="1359"></path><path d="M864 320m-32 0a32 32 0 1 0 64 0 32 32 0 1 0-64 0Z" fill="#1296db" p-id="1360"></path><path d="M160 704m-32 0a32 32 0 1 0 64 0 32 32 0 1 0-64 0Z" fill="#1296db" p-id="1361"></path><path d="M864 704m-32 0a32 32 0 1 0 64 0 32 32 0 1 0-64 0Z" fill="#1296db" p-id="1362"></path><path d="M704 160m-32 0a32 32 0 1 0 64 0 32 32 0 1 0-64 0Z" fill="#1296db" p-id="1363"></path><path d="M320 864m-32 0a32 32 0 1 0 64 0 32 32 0 1 0-64 0Z" fill="#1296db" p-id="1364"></path><path d="M704 864m-32 0a32 32 0 1 0 64 0 32 32 0 1 0-64 0Z" fill="#1296db" p-id="1365"></path><path d="M160 480h704v64h-704z" fill="#1296db" p-id="1366"></path></svg>