<?xml version="1.0" standalone="no"?><!DOCTYPE svg PUBLIC "-//W3C//DTD SVG 1.1//EN" "http://www.w3.org/Graphics/SVG/1.1/DTD/svg11.dtd"><svg t="1530083793664" class="icon" style="" viewBox="0 0 1024 1024" version="1.1" xmlns="http://www.w3.org/2000/svg" p-id="2781" xmlns:xlink="http://www.w3.org/1999/xlink" width="64" height="64"><defs><style type="text/css"></style></defs><path d="M708.715789 796.294737 235.789474 796.294737c-91.621053 0-167.073684-74.105263-167.073684-167.073684L68.715789 396.126316c0-91.621053 74.105263-167.073684 167.073684-167.073684l432.505263 0c14.821053 0 26.947368 12.126316 26.947368 26.947368s-12.126316 26.947368-26.947368 26.947368L235.789474 282.947368c-61.978947 0-113.178947 49.852632-113.178947 113.178947l0 234.442105c0 61.978947 49.852632 113.178947 113.178947 113.178947l474.273684 0c61.978947 0 113.178947-49.852632 113.178947-113.178947 0 0 0-281.6 0-388.042105 0-52.547368 14.821053-92.968421 44.463158-121.263158 39.073684-36.378947 90.273684-33.684211 92.968421-33.684211 14.821053 1.347368 25.6 13.473684 25.6 28.294737-1.347368 14.821053-13.473684 25.6-28.294737 25.6 0 0-30.989474-1.347368-52.547368 20.210526-17.515789 16.168421-26.947368 44.463158-26.947368 80.842105 0 106.442105 0 388.042105 0 388.042105C875.789474 720.842105 801.684211 796.294737 708.715789 796.294737z" p-id="2782"></path><path d="M668.294737 454.063158l-390.736842 0c-14.821053 0-26.947368-12.126316-26.947368-26.947368s12.126316-26.947368 26.947368-26.947368l390.736842 0c14.821053 0 26.947368 12.126316 26.947368 26.947368S683.115789 454.063158 668.294737 454.063158z" p-id="2783"></path><path d="M668.294737 623.831579l-390.736842 0c-14.821053 0-26.947368-12.126316-26.947368-26.947368s12.126316-26.947368 26.947368-26.947368l390.736842 0c14.821053 0 26.947368 12.126316 26.947368 26.947368S683.115789 623.831579 668.294737 623.831579z" p-id="2784"></path><path d="M847.494737 886.568421m-53.894737 0a4 4 0 1 0 107.789474 0 4 4 0 1 0-107.789474 0Z" p-id="2785"></path><path d="M109.136842 886.568421m-53.894737 0a4 4 0 1 0 107.789474 0 4 4 0 1 0-107.789474 0Z" p-id="2786"></path></svg>