<?xml version="1.0" standalone="no"?><!DOCTYPE svg PUBLIC "-//W3C//DTD SVG 1.1//EN" "http://www.w3.org/Graphics/SVG/1.1/DTD/svg11.dtd"><svg t="1530083765750" class="icon" style="" viewBox="0 0 1024 1024" version="1.1" xmlns="http://www.w3.org/2000/svg" p-id="2662" xmlns:xlink="http://www.w3.org/1999/xlink" width="64" height="64"><defs><style type="text/css"></style></defs><path d="M512 554.666667a213.333333 213.333333 0 0 1-213.333333-213.333334h85.333333a128 128 0 0 0 128 128 128 128 0 0 0 128-128h85.333333a213.333333 213.333333 0 0 1-213.333333 213.333334m0-426.666667a128 128 0 0 1 128 128H384a128 128 0 0 1 128-128m298.666667 128h-85.333334a213.333333 213.333333 0 0 0-213.333333-213.333333 213.333333 213.333333 0 0 0-213.333333 213.333333H213.333333c-47.36 0-85.333333 37.973333-85.333333 85.333333v512a85.333333 85.333333 0 0 0 85.333333 85.333334h597.333334a85.333333 85.333333 0 0 0 85.333333-85.333334V341.333333a85.333333 85.333333 0 0 0-85.333333-85.333333z" fill="" p-id="2663"></path></svg>