<?xml version="1.0" standalone="no"?><!DOCTYPE svg PUBLIC "-//W3C//DTD SVG 1.1//EN" "http://www.w3.org/Graphics/SVG/1.1/DTD/svg11.dtd"><svg t="1531387602948" class="icon" style="" viewBox="0 0 1024 1024" version="1.1" xmlns="http://www.w3.org/2000/svg" p-id="3980" xmlns:xlink="http://www.w3.org/1999/xlink" width="64" height="64"><defs><style type="text/css"></style></defs><path d="M731.566144 770.497524c-2.914028 0-5.965058-0.067001-9.313091-0.202002l-102.019996 0.202002h-0.037c-9.904097 0-17.942175-8.019078-17.961176-17.926175-0.02-9.922097 8.006078-17.979176 17.926175-17.999175l102.411-0.203002c0.253002-0.002 0.527005 0.005 0.791008 0.016 2.998029 0.126001 5.682055 0.187002 8.20508 0.187002 105.650032 0 191.602871-85.951839 191.602871-191.602872 0-105.650032-85.951839-191.602871-191.602871-191.602871-3.982039 0-8.015078 0.133001-12.33112 0.406004a17.922175 17.922175 0 0 1-14.720144-6.17306 17.962175 17.962175 0 0 1-3.994039-15.454151 193.061885 193.061885 0 0 0 4.12104-39.681387c0-105.650032-85.951839-191.602871-191.602871-191.602872-105.650032 0-191.602871 85.952839-191.602871 191.602872 0 13.33813 1.387014 26.688261 4.12204 39.681387a17.963175 17.963175 0 0 1-18.714182 21.627211 192.995885 192.995885 0 0 0-12.331121-0.406004c-105.650032 0-191.602871 85.952839-191.602871 191.602871s85.952839 191.602871 191.602871 191.602872c1.807018 0 3.723036-0.034 6.030059-0.105001 0.205002-0.007 0.406004-0.013 0.618006-0.008001l29.146285 0.099001 4.720046-0.002 73.210715 0.016001c9.920097 0.002 17.961175 8.046079 17.958175 17.966175-0.002 9.919097-8.045079 17.959175-17.963175 17.959175h-0.004l-73.197715-0.016-4.777047 0.002-28.911282-0.098001c-2.521025 0.076001-4.758046 0.112001-6.829067 0.112001-125.459225 0-227.528222-102.067997-227.528222-227.528222 0-122.9092 97.958957-223.369181 219.905148-227.40222a229.523241 229.523241 0 0 1-1.380014-25.103245c0-125.459225 102.067997-227.528222 227.528222-227.528222s227.528222 102.067997 227.528222 227.528222c0 8.384082-0.462005 16.773164-1.380013 25.103245 121.946191 4.033039 219.905148 104.49302 219.905147 227.40222 0 125.460225-102.067997 227.528222-227.528222 227.528222z" fill="#989898" p-id="3981"></path><path d="M693.335771 644.541294a17.906175 17.906175 0 0 1-12.701124-5.261051l-180.362762-180.361761c-7.015069-7.015069-7.015069-18.38818 0-25.403248s18.38618-7.015069 25.403249 0l180.361761 180.361761c7.015069 7.014068 7.015069 18.38818 0 25.403248a17.910175 17.910175 0 0 1-12.701124 5.261051z" fill="#989898" p-id="3982"></path><path d="M332.746249 644.541294a17.906175 17.906175 0 0 1-12.701124-5.261051c-7.015069-7.014068-7.015069-18.38818 0-25.403248l180.361762-180.361761c7.014068-7.015069 18.38818-7.015069 25.403248 0 7.015069 7.015069 7.015069 18.38818 0 25.403248l-180.362761 180.361761a17.909175 17.909175 0 0 1-12.701125 5.261051z" fill="#989898" p-id="3983"></path><path d="M513.04101 961.073385c-9.920097 0-17.963175-8.042079-17.963175-17.963175V484.633733c0-9.920097 8.042079-17.963175 17.963175-17.963176 9.920097 0 17.963175 8.042079 17.963176 17.963176v458.476477c0 9.921097-8.043079 17.963175-17.963176 17.963175z" fill="#989898" p-id="3984"></path></svg>