<?xml version="1.0" standalone="no"?><!DOCTYPE svg PUBLIC "-//W3C//DTD SVG 1.1//EN" "http://www.w3.org/Graphics/SVG/1.1/DTD/svg11.dtd"><svg t="1531386654437" class="icon" style="" viewBox="0 0 1024 1024" version="1.1" xmlns="http://www.w3.org/2000/svg" p-id="1533" xmlns:xlink="http://www.w3.org/1999/xlink" width="64" height="64"><defs><style type="text/css"></style></defs><path d="M317.99296 499.85536h131.92192v67.26656H317.99296zM318.50496 361.14944h131.9424v67.26144h-131.9424zM318.1568 636.42112h131.95264v67.26144H318.1568z" fill="#F07A7A" p-id="1534"></path><path d="M508.38528 3.86048C227.93216 3.86048 0.5888 231.20896 0.5888 511.66208s227.34336 507.79648 507.79648 507.79648 507.80672-227.34336 507.80672-507.79648S788.8384 3.86048 508.38528 3.86048z m250.94656 752.9984a19.80928 19.80928 0 0 1-19.79904 19.81952H283.9552a19.83488 19.83488 0 0 1-19.81952-19.81952V301.27104a19.82464 19.82464 0 0 1 19.81952-19.80928h278.25152v79.68256H486.656v67.26144h75.30496v71.55712H486.656v67.36896h59.27424L486.656 633.7792v68.85888h218.11712v-73.25184h-47.34976v7.02464h-90.72128l63.46752-69.38112h74.60352V499.71712H633.856V428.14976h70.91712V360.63232H633.856V281.46176h105.66656a19.79392 19.79392 0 0 1 19.79904 19.80928v455.58784h0.01024z" fill="#F07A7A" p-id="1535"></path></svg>