<?xml version="1.0" standalone="no"?><!DOCTYPE svg PUBLIC "-//W3C//DTD SVG 1.1//EN" "http://www.w3.org/Graphics/SVG/1.1/DTD/svg11.dtd"><svg t="1532936320666" class="icon" style="" viewBox="0 0 1024 1024" version="1.1" xmlns="http://www.w3.org/2000/svg" p-id="3599" xmlns:xlink="http://www.w3.org/1999/xlink" width="64" height="64"><defs><style type="text/css"></style></defs><path d="M494.933333 119.466667m-102.4 0a102.4 102.4 0 1 0 204.8 0 102.4 102.4 0 1 0-204.8 0Z" fill="" p-id="3600"></path><path d="M718.182056 305.096171a93.866667 93.866667 0 1 0 132.745196-132.74983 93.866667 93.866667 0 1 0-132.745196 132.74983Z" fill="" p-id="3601"></path><path d="M904.533333 529.066667m-85.333333 0a85.333333 85.333333 0 1 0 170.666667 0 85.333333 85.333333 0 1 0-170.666667 0Z" fill="" p-id="3602"></path><path d="M730.961823 872.999735a76.8 76.8 0 1 0 108.609706-108.613497 76.8 76.8 0 1 0-108.609706 108.613497Z" fill="" p-id="3603"></path><path d="M494.933333 938.666667m-68.266666 0a68.266667 68.266667 0 1 0 136.533333 0 68.266667 68.266667 0 1 0-136.533333 0Z" fill="" p-id="3604"></path><path d="M163.069906 861.638591a59.733333 59.733333 0 1 0 84.474216-84.477164 59.733333 59.733333 0 1 0-84.474216 84.477164Z" fill="" p-id="3605"></path><path d="M85.333333 529.066667m-51.2 0a51.2 51.2 0 1 0 102.4 0 51.2 51.2 0 1 0-102.4 0Z" fill="" p-id="3606"></path><path d="M174.41856 269.615762a42.666667 42.666667 0 1 0 60.338725-60.340832 42.666667 42.666667 0 1 0-60.338725 60.340832Z" fill="" p-id="3607"></path></svg>